<svg width="216" height="42" viewBox="0 0 216 42" fill="none" xmlns="http://www.w3.org/2000/svg">
<path d="M4.44483 41.624C3.87283 41.624 2.98883 41.156 2.72883 40.688C2.41683 40.116 2.10483 37.412 2.00083 36.736C1.27283 31.068 0.908828 25.348 0.804828 19.628C0.700828 14.896 0.700828 10.06 1.37683 5.38C1.48083 4.392 1.63683 3.3 2.36483 2.676C3.04083 2.104 4.08083 2.104 4.96483 2.156C12.7128 2.26 20.5128 2.468 28.3128 2.468C29.3008 2.468 30.2888 3.092 30.0288 4.08C28.9888 7.46 28.5208 10.996 28.0008 14.48C27.8968 15 27.6368 15.884 27.1688 15.988C26.4928 16.196 23.4768 16.196 22.8008 16.196C21.7608 16.144 15.2088 16.04 14.1688 16.04C14.1688 17.34 14.1688 18.588 14.2208 19.888C15.6768 19.784 22.9048 19.524 24.3608 19.732C24.5688 19.732 24.8288 19.836 24.9328 19.992C25.0368 20.148 25.0368 20.876 25.0368 21.084C25.0368 23.372 24.8808 25.66 24.8808 27.948C24.9328 28.208 24.8808 28.52 24.7248 28.728C24.4648 29.196 23.7888 29.352 23.2688 29.404C22.0728 29.456 14.9488 29.82 13.7528 29.872C14.0648 32.94 14.2728 36.008 14.9488 39.024C15.1048 39.752 14.5848 40.428 13.8048 40.532C10.6848 40.948 7.56483 41.468 4.44483 41.624ZM25.4528 8.448C25.2448 9.696 26.9088 10.32 27.4288 9.176C27.5328 9.02 27.5848 8.292 27.6368 8.136C27.7408 7.356 27.8968 6.524 27.6888 5.744C27.4808 5.068 26.9088 4.392 26.2328 4.08C25.5568 3.768 24.7248 3.716 23.9448 3.82C23.6848 3.82 22.0728 3.924 21.8128 3.976C21.2408 3.664 20.6168 3.976 20.3048 4.548C19.9928 5.224 20.5128 6.056 21.2928 6.056C22.2808 6.056 23.2688 5.952 24.2048 5.848C24.6208 5.796 25.4528 5.848 25.6608 6.212C25.8688 6.628 25.5568 7.98 25.4528 8.448ZM40.0872 41.364C38.6312 41.676 31.4032 41.572 29.8952 41.572C29.4272 41.572 28.8552 41.468 28.5952 41.104C28.1792 40.636 28.3352 39.856 28.4392 39.284C29.6352 32.212 31.2472 25.192 33.5872 18.432C35.2512 13.544 37.2272 8.76 39.9832 4.444C40.5032 3.664 41.0232 2.78 41.8552 2.364C42.8952 1.792 47.1592 1.688 48.3552 1.688C49.0832 1.688 52.7232 1.688 53.4512 1.844C53.7632 1.896 54.1272 2.052 54.3352 2.26C54.7512 2.676 55.7912 4.652 56.0512 5.12C58.5992 10.112 60.3672 15.468 61.7712 20.876C63.2792 26.804 64.0592 32.992 64.0072 39.128C64.0072 39.648 64.0072 40.324 63.5912 40.636C62.8632 41.208 61.7712 41.104 60.8352 41.052C59.8992 41.052 54.9592 40.948 54.0232 41.052C53.1392 41.156 51.3712 41.364 50.9032 40.584C50.7472 40.272 50.7992 39.96 50.7992 39.648C50.7992 38.504 50.7472 37.36 50.7472 36.268C47.7832 35.696 44.7152 35.384 41.6992 35.488C41.6472 36.112 41.2312 39.7 41.1272 40.324C41.0752 40.584 40.9712 40.844 40.8152 41.052C40.6072 41.208 40.3472 41.26 40.0872 41.364ZM53.7632 9.02C54.3872 10.268 56.3112 9.384 55.6872 8.136C55.5832 7.928 55.5312 7.72 55.4792 7.564C55.3752 6.94 54.4912 4.652 54.1272 4.132C53.9192 3.82 53.6072 3.612 53.2952 3.352C52.6712 2.884 51.7352 2.78 50.9552 2.884C50.7992 2.936 49.9672 2.988 49.8632 3.04C48.5112 3.352 48.9792 5.38 50.3312 5.068C50.6432 5.016 51.6832 4.86 51.9432 4.964C52.6712 5.224 53.1392 6.94 53.3992 7.668C53.4512 7.876 53.6592 8.812 53.7632 9.02ZM43.0512 27.48C45.4432 27.428 47.8872 27.532 50.2272 27.896C49.7072 22.904 48.8752 17.912 47.4192 13.128C45.3392 17.652 44.0392 22.592 43.0512 27.48ZM78.0195 41.156C74.6915 41.78 71.2075 41.676 67.8795 41.156C67.5155 41.104 67.1515 41.104 66.8395 40.896C66.2675 40.584 66.1115 40.064 66.2675 39.44C69.5435 27.428 72.0915 15.26 75.3155 3.248C75.4195 2.78 75.7315 2.416 76.1995 2.312C76.4075 2.208 77.3955 2.208 77.6035 2.208C81.2435 2.156 84.8315 2.416 88.4195 2.416C88.7835 2.468 89.1995 2.624 89.4595 2.884C89.8235 3.248 89.9795 3.768 90.1355 4.236C90.3955 5.276 90.4475 6.316 90.6035 7.304C91.2795 11.776 92.0595 16.248 92.9955 20.668C94.3475 15.312 96.0115 10.008 96.9475 4.6C97.0515 4.08 97.1035 3.508 97.3115 3.04C97.4675 2.728 97.7275 2.468 98.0395 2.364C98.7155 2.156 101.836 2.364 102.512 2.416C104.332 2.468 106.1 2.52 107.868 2.624C108.336 2.676 110.156 2.728 110.572 2.988C111.04 3.248 111.248 3.872 111.3 4.392C112.444 15.676 114.94 26.804 116.5 38.036C116.552 38.504 116.396 39.024 116.084 39.336C115.72 39.648 115.148 39.752 114.68 39.856C113.38 40.064 106.568 40.74 105.216 40.74C104.852 40.74 104.384 40.688 104.124 40.428C103.916 40.272 103.812 39.96 103.76 39.7C102.824 34.344 102.772 28.832 102.252 23.424C100.952 27.064 99.7555 30.704 98.8715 34.448C98.6635 35.228 98.5595 36.008 98.2995 36.788C98.0915 37.256 97.8835 37.776 97.4675 38.088C97.2075 38.296 96.8955 38.4 96.5835 38.4C94.1915 38.608 91.7995 38.712 89.4075 38.452C89.0955 38.4 88.7315 38.348 88.5235 38.14C88.1595 37.932 88.0035 37.516 87.8475 37.152C85.9235 31.952 84.9355 26.44 83.4795 21.084C83.4275 20.98 83.4275 21.188 83.3755 21.344C82.3875 27.272 81.4515 33.252 80.3075 39.128C80.2555 39.492 80.1515 39.856 79.9435 40.116C79.4755 40.688 78.6955 41.052 78.0195 41.156ZM108.18 10.112C108.18 11.724 110.572 11.516 110.208 9.956C110.104 9.436 109.636 6.68 109.428 6.16C109.168 5.432 108.752 4.6 108.076 4.288C107.244 3.924 104.54 3.872 103.656 4.08C102.2 4.392 102.668 6.42 104.124 6.108C104.644 5.952 106.62 6.056 107.14 6.16C107.296 6.212 107.4 6.576 107.452 6.732C107.608 7.252 108.18 9.592 108.18 10.112ZM87.3275 10.58C88.1075 11.412 89.4075 10.788 89.1475 9.748C88.9395 8.656 88.2115 5.38 87.4315 4.652C87.0675 4.34 85.7675 4.028 85.2475 4.028C84.9355 4.028 82.8035 3.976 82.4915 3.976C81.5035 4.028 81.0355 5.224 81.8155 5.848C82.3875 6.264 84.6235 6.108 85.2995 6.108C85.4555 6.108 85.9235 6.212 86.0275 6.264C86.1835 6.576 86.7035 8.188 86.7555 8.5C86.8595 8.916 87.0675 10.32 87.3275 10.58ZM134.277 40.48C134.017 41.728 132.041 41.468 130.793 41.468C129.961 41.416 124.813 41.468 123.981 41.468C123.617 41.468 123.201 41.312 122.889 41.052C122.525 40.74 122.317 40.272 122.213 39.804C121.277 36.008 120.913 32.056 120.601 28.156C120.029 21.812 119.925 15.468 120.133 9.124C120.185 7.98 120.341 5.224 121.277 4.6C121.901 4.132 124.657 3.924 125.437 3.82C126.425 3.768 131.885 3.3 132.873 3.3C134.277 3.352 136.097 3.508 135.941 4.912C134.641 14.48 134.173 24.204 134.121 33.876C134.121 34.084 134.121 35.332 134.121 35.54C134.121 36.32 134.433 39.752 134.277 40.48ZM131.417 10.736C131.313 12.088 133.185 12.452 133.497 11.152C133.497 11.048 133.497 10.476 133.549 10.372C133.601 9.384 133.705 8.344 133.549 7.356C133.393 6.524 132.925 5.588 132.145 5.224C131.573 4.964 130.897 5.016 130.273 5.12C129.805 5.224 129.389 5.224 128.921 5.276C128.817 5.328 128.141 5.484 128.037 5.536C127.049 5.744 126.945 7.044 127.829 7.46C128.245 7.668 128.869 7.512 129.337 7.356C129.441 7.304 130.273 7.252 130.429 7.2C130.741 7.148 131.209 6.992 131.365 7.252C131.677 7.876 131.469 10.112 131.417 10.736ZM142.48 41.624C142.168 41.676 141.856 41.728 141.492 41.676C141.128 41.624 140.816 41.416 140.608 41.104C140.244 40.636 140.14 40.012 140.14 39.388C140.088 37.984 140.14 32.732 140.712 31.432C140.92 30.964 141.232 30.548 141.648 30.236C147.056 26.44 152.048 22.072 156.676 17.392C152.308 17.6 147.94 17.704 143.572 18.12C143 18.172 142.324 18.328 141.752 18.12C141.336 17.964 140.972 17.6 140.764 17.184C140.504 16.56 140.244 13.7 140.192 12.972C139.984 11.048 139.828 9.072 139.672 7.148C139.568 6.368 139.204 4.444 139.776 3.872C140.088 3.56 141.232 3.56 141.7 3.56C150.54 3.612 159.432 3.924 168.324 4.34C169 4.34 169.676 4.392 170.352 4.444C171.132 4.548 172.068 4.808 171.964 5.588C171.496 8.656 171.34 11.828 171.236 14.948C171.184 15.78 170.924 16.612 170.456 17.236C170.04 17.756 167.44 19.732 166.92 20.148C163.28 23.268 159.744 26.492 156.312 29.82C158.132 29.768 167.492 29.404 169.312 29.612C169.624 29.664 170.04 29.768 170.248 29.976C170.404 30.132 170.456 30.34 170.508 30.548C170.56 31.068 170.144 33.304 170.092 33.772C169.936 34.604 169.312 39.388 169.104 40.22C169.052 40.48 168.896 40.792 168.688 40.948C168.324 41.208 167.856 41.26 167.44 41.26C163.904 41.364 145.964 40.948 142.48 41.624ZM167.388 10.892C167.128 12.14 168.74 12.712 169.312 11.62C169.52 11.204 169.468 10.788 169.52 10.372C169.624 9.436 169.676 8.552 169.572 7.668C169.468 7.096 169.052 6.524 168.532 6.264C168.012 6.004 167.44 5.796 166.868 5.796C166.088 5.744 162.5 5.744 161.72 5.952C160.368 6.212 160.836 8.136 162.24 7.98C163.228 7.876 166.608 7.668 167.544 8.084C167.544 8.5 167.492 10.476 167.388 10.892ZM198.147 41.78C195.443 41.884 192.791 41.884 190.139 41.78C189.411 41.78 187.435 41.78 186.915 41.26C186.811 41.104 186.759 40.844 186.759 40.636C187.591 36.268 188.007 31.848 188.059 27.376C188.059 27.324 187.955 27.272 187.903 27.22C185.615 25.296 183.587 23.06 181.819 20.616C178.907 16.56 176.723 12.036 174.747 7.46C174.175 6.108 173.499 4.288 174.955 3.976C178.543 3.144 182.027 1.948 185.563 0.959998C186.291 0.751997 187.227 0.595999 187.435 1.324C188.527 5.328 190.191 9.176 192.219 12.764C193.051 14.272 193.987 15.728 195.183 16.976C196.951 15 200.747 5.068 201.683 2.624C201.943 1.948 202.359 1.168 203.035 0.959998C203.763 0.751997 206.259 1.22 206.935 1.376C208.807 1.74 210.575 2.26 212.395 2.728C212.707 2.78 214.163 3.144 214.423 3.3C215.099 3.664 215.463 4.496 215.255 5.276C214.735 7.252 213.903 9.124 213.071 10.996C211.563 14.22 209.795 17.288 207.767 20.2C205.999 22.696 204.023 25.088 201.735 27.116C201.891 28.936 202.411 38.452 202.307 40.272C202.255 40.688 202.099 41.104 201.787 41.312C201.163 41.676 198.823 41.78 198.147 41.78ZM185.719 7.356C186.343 8.656 188.267 7.772 187.643 6.524C187.539 6.264 187.019 4.652 186.915 4.392C186.603 3.664 185.927 2.884 185.095 2.676C184.315 2.52 183.483 2.78 182.755 3.144C182.651 3.196 182.027 3.352 181.923 3.404C181.507 3.56 180.259 4.08 179.999 4.392C179.323 5.276 180.259 6.472 181.247 6.004C181.767 5.744 182.235 5.484 182.703 5.328C183.015 5.224 183.379 5.12 183.691 5.016C183.951 4.86 184.471 4.548 184.679 4.756C185.355 5.432 185.303 6.524 185.719 7.356ZM210.679 8.5C210.107 9.8 211.927 10.788 212.551 9.488C212.759 9.072 213.643 7.408 213.695 6.94C213.799 6.108 213.539 5.016 212.863 4.496C212.343 4.132 211.719 3.872 211.095 3.716C210.107 3.508 207.195 2.78 206.259 3.196C205.479 3.612 205.479 4.704 206.259 5.068C206.779 5.328 207.351 5.068 207.871 5.172C208.183 5.276 209.951 5.64 210.263 5.692C210.939 5.796 211.875 5.952 211.615 6.576C211.355 7.252 210.991 7.876 210.679 8.5Z" fill="#01010D"/>
</svg>
